<svg xmlns="http://www.w3.org/2000/svg" id="Layer_1" data-name="Layer 1" viewBox="0 0 159.59 76.99"><defs><style>.cls-1{fill:#a6a6a6;stroke:#a6a6a6}.cls-1,.cls-2,.cls-3{stroke-miterlimit:10}.cls-2{fill:#ffd5e0;stroke:#ffd5e0}.cls-3{fill:#fdb4b9;stroke:#fdb4b9}</style></defs><path d="M69.97,38.51C60.87,25.84,51.78,13.17,42.69.5H.67v12.94h46.78s.02,17.03.02,17.03h-24.21s0,12.92,0,12.92h23.82v18.86s-46.58,0-46.58,0l.08,14.25h42.1l27.28-37.98Z" class="cls-1"/><path d="M89.62,38.51c9.09-12.67,18.19-25.34,27.28-38.01h42.01v12.94h-46.78s-.02,17.03-.02,17.03h24.21s0,12.92,0,12.92h-23.82v18.86s46.58,0,46.58,0l-.08,14.25h-42.1l-27.28-37.98Z" class="cls-3"/><polygon points="61.75 .5 79.42 25.09 96.78 .5 61.75 .5" class="cls-2"/><polygon points="62.58 76.49 80.25 51.9 97.61 76.49 62.58 76.49" class="cls-2"/></svg>