<svg xmlns="http://www.w3.org/2000/svg" xmlns:xlink="http://www.w3.org/1999/xlink" id="Layer_1" data-name="Layer 1" viewBox="0 0 152.73 160"><defs><style>.cls-1,.cls-2,.cls-3,.cls-4{fill:none}.cls-5{fill:#fdb4b9}.cls-2{stroke:#ffd5e0}.cls-2,.cls-3,.cls-4{stroke-miterlimit:10}.cls-3{stroke:#fdb4b9}.cls-6{fill:#a6a6a6}.cls-7{clip-path:url(#clippath-1)}.cls-8{clip-path:url(#clippath-3)}.cls-9{clip-path:url(#clippath-4)}.cls-10{clip-path:url(#clippath-2)}.cls-11{clip-path:url(#clippath-7)}.cls-12{clip-path:url(#clippath-6)}.cls-13{clip-path:url(#clippath-8)}.cls-14{clip-path:url(#clippath-5)}.cls-15{fill:#fff}.cls-4{stroke:#a6a6a6}.cls-16{clip-path:url(#clippath)}.cls-17{fill:#ffd5e0}</style><clipPath id="clippath"><rect width="63.84" height="69.48" x="4.85" y="56.57" class="cls-1"/></clipPath><clipPath id="clippath-1"><rect width="77.18" height="69.66" x="4.43" y="56.38" class="cls-1"/></clipPath><clipPath id="clippath-2"><rect width="63.84" height="69.48" x="85.65" y="56.57" class="cls-1"/></clipPath><clipPath id="clippath-3"><rect width="77.08" height="69.66" x="72.73" y="56.38" class="cls-1"/></clipPath><clipPath id="clippath-4"><rect width="58.18" height="35.74" x="47.67" y="56.38" class="cls-1"/></clipPath><clipPath id="clippath-5"><rect width="32.33" height="23.41" x="61.41" y="102.62" class="cls-1"/></clipPath><clipPath id="clippath-6"><rect width="58.18" height="35.54" x="48.49" y="90.5" class="cls-1"/></clipPath><clipPath id="clippath-7"><rect width="151.92" height="56.57" x=".81" class="cls-1"/></clipPath><clipPath id="clippath-8"><rect width="151.92" height="35.56" y="124.44" class="cls-1"/></clipPath></defs><g class="cls-16"><path d="M68.22,91.22c-8.25-11.47-16.49-22.93-24.72-34.39H5.41v11.71h42.39l.02,15.41h-21.94v11.69h21.59v17.07H5.26l.07,12.89h38.15l24.72-34.36h.01Z" class="cls-6"/></g><g class="cls-7"><path d="M68.22,91.22c-8.25-11.47-16.49-22.93-24.72-34.39H5.41v11.71h42.39l.02,15.41h-21.94v11.69h21.59v17.07H5.26l.07,12.89h38.15l24.72-34.36h.01Z" class="cls-4"/></g><g class="cls-10"><path d="M86.03,91.22c8.24-11.47,16.49-22.93,24.73-34.39h38.07v11.71h-42.39l-.02,15.41h21.94v11.69h-21.58v17.07h42.21l-.07,12.89h-38.15l-24.73-34.36h0s0-.01,0-.01Z" class="cls-5"/></g><g class="cls-8"><path d="M86.03,91.22c8.24-11.47,16.49-22.93,24.73-34.39h38.07v11.71h-42.39l-.02,15.41h21.94v11.69h-21.58v17.07h42.21l-.07,12.89h-38.15l-24.73-34.36h0s0-.01,0-.01Z" class="cls-3"/></g><path d="M60.77,56.83l16.01,22.25,15.73-22.25h-31.74Z" class="cls-17"/><g class="cls-9"><path d="M60.77,56.83l16.01,22.25,15.73-22.25h-31.74Z" class="cls-2"/></g><g class="cls-14"><path d="M61.52,125.58l16.01-22.25,15.73,22.25h-31.74Z" class="cls-17"/></g><g class="cls-12"><path d="M61.52,125.58l16.01-22.25,15.73,22.25h-31.74Z" class="cls-2"/></g><g class="cls-11"><g><path d="M13.96,43.46L3.39,16.02h6.6l6.96,18.39,7.3-18.39h4.46l7.42,18.39,6.66-18.39h5.71l-10.6,27.43h-4.3l-7.56-18.98-7.65,18.98h-4.42Z" class="cls-15"/><path d="M51.26,43.46v-27.43h28.1v4.67h-21.71v6.12h12.67v4.67h-12.67v6.81h21.96v5.16h-28.35Z" class="cls-15"/><path d="M105.96,20.48h-14.56v6.54h14.56c1.11,0,1.88-.14,2.3-.43.43-.29.65-.81.65-1.54v-2.59c0-.71-.21-1.23-.65-1.53-.43-.31-1.19-.46-2.3-.46ZM105.96,31.54h-14.56v6.99h14.56c1.21,0,2.03-.18,2.45-.54.43-.36.65-1,.65-1.92v-2.07c0-.92-.21-1.55-.65-1.9-.42-.36-1.24-.55-2.45-.55ZM85.11,43.46v-27.43h23.53c2.16,0,3.73.43,4.7,1.27.97.84,1.45,2.19,1.45,4.04v3.34c0,1.32-.41,2.38-1.23,3.17-.81.78-1.98,1.27-3.5,1.45,1.57.21,2.79.78,3.65,1.69.86.92,1.29,2.12,1.29,3.58v3.5c0,1.82-.67,3.17-2.01,4.05-1.33.89-3.35,1.33-6.07,1.33h-21.8Z" class="cls-15"/><path d="M141.89,20.48h-14.56v6.54h14.56c1.11,0,1.88-.14,2.3-.43.43-.29.65-.81.65-1.54v-2.59c0-.71-.21-1.23-.65-1.53-.42-.31-1.18-.46-2.3-.46ZM141.89,31.54h-14.56v6.99h14.56c1.21,0,2.03-.18,2.45-.54.43-.36.65-1,.65-1.92v-2.07c0-.92-.21-1.55-.65-1.9-.42-.36-1.23-.55-2.45-.55ZM121.05,43.46v-27.43h23.53c2.16,0,3.73.43,4.7,1.27.97.84,1.45,2.19,1.45,4.04v3.34c0,1.32-.41,2.38-1.23,3.17-.81.78-1.98,1.27-3.5,1.45,1.57.21,2.79.78,3.65,1.69.86.92,1.29,2.12,1.29,3.58v3.5c0,1.82-.67,3.17-2.01,4.05-1.33.89-3.35,1.33-6.07,1.33h-21.8Z" class="cls-15"/></g></g><g class="cls-13"><g><path d="M18.01,137.21h-8.79v4.67h8.79c.68,0,1.14-.1,1.39-.29.25-.19.38-.54.38-1.05v-2.01c0-.49-.13-.83-.38-1.02-.25-.21-.7-.31-1.39-.31ZM5.39,151.11v-16.79h14.36c1.34,0,2.3.26,2.91.77.6.51.9,1.34.9,2.49v3.94c0,1.14-.3,1.97-.9,2.49-.61.52-1.57.77-2.91.77h-2.19l7.75,6.34h-5.62l-6.77-6.34h-3.7v6.34h-3.83Z" class="cls-15"/><path d="M30.9,148.47h11.09v-8.6h-11.09v8.6ZM27.54,140.59c0-1.24.25-2.1.73-2.55.49-.46,1.44-.69,2.85-.69h10.65c1.41,0,2.36.23,2.84.69.49.45.73,1.31.73,2.55v7.26c0,1.26-.25,2.12-.75,2.58-.49.45-1.43.68-2.83.68h-10.64c-1.41,0-2.37-.23-2.85-.68-.49-.45-.73-1.31-.73-2.58v-7.26h0Z" class="cls-15"/><path d="M49.34,151.11v-13.76h12.36c1.15,0,1.98.21,2.49.63.51.42.77,1.1.77,2.05v1.65c0,.62-.2,1.14-.61,1.54-.41.4-.99.67-1.74.81.76.13,1.37.42,1.79.89.43.45.65,1.03.65,1.73v1.77c0,.9-.35,1.58-1.06,2.03-.71.45-1.78.67-3.21.67,0,0-11.43,0-11.43,0ZM60.17,139.59h-7.51v3.26h7.51c.58,0,.98-.07,1.19-.23.21-.15.31-.41.31-.76v-1.31c0-.35-.11-.6-.31-.75-.21-.14-.61-.21-1.19-.21ZM60.17,145.12h-7.51v3.51h7.51c.63,0,1.06-.09,1.29-.27.23-.18.34-.51.34-.96v-1.05c0-.45-.11-.77-.34-.96-.23-.18-.66-.28-1.29-.28Z" class="cls-15"/><path d="M71.95,148.47h11.09v-8.6h-11.09v8.6ZM68.59,140.59c0-1.24.25-2.1.73-2.55.49-.46,1.44-.69,2.85-.69h10.65c1.41,0,2.36.23,2.84.69.49.45.73,1.31.73,2.55v7.26c0,1.26-.25,2.12-.75,2.58-.49.45-1.43.68-2.83.68h-10.64c-1.41,0-2.37-.23-2.85-.68-.49-.45-.73-1.31-.73-2.58v-7.26h0Z" class="cls-15"/><path d="M98.6,139.81v11.3h-3.34v-11.3h-6.64v-2.46h16.64v2.46h-6.66Z" class="cls-15"/><path d="M107.8,151.11v-13.76h3.33v13.76h-3.33Z" class="cls-15"/><path d="M127.53,139.87h-9.04v8.6h9.04v-2.92l3.38.68v1.62c0,1.26-.25,2.12-.75,2.58-.5.45-1.45.68-2.86.68h-8.59c-1.39,0-2.34-.23-2.84-.68-.5-.45-.75-1.31-.75-2.58v-7.26c0-1.24.25-2.1.73-2.55.5-.46,1.45-.69,2.85-.69h8.59c1.42,0,2.38.23,2.86.69.5.45.75,1.31.75,2.55v1.34l-3.38.49v-2.55h0Z" class="cls-15"/><path d="M147.34,139.81h-9.46v2.92h8.95c1.41,0,2.36.23,2.84.68.49.45.73,1.3.73,2.55v1.89c0,1.26-.25,2.12-.75,2.58-.5.45-1.44.68-2.83.68h-8.93c-1.42,0-2.38-.23-2.89-.68-.5-.45-.75-1.31-.75-2.58v-.38l2.98-.55v1.62h10.13v-3.14h-8.92c-1.41,0-2.36-.23-2.86-.68-.5-.46-.75-1.32-.75-2.58v-1.54c0-1.24.25-2.09.75-2.55.51-.46,1.46-.69,2.86-.69h8.17c1.39,0,2.34.22,2.85.67.51.44.77,1.21.77,2.33v.33l-2.92.62v-1.48Z" class="cls-15"/></g></g></svg>